Coordinates
version=1
nRows=13
nColumns=34
inDegrees=yes

Units are S.I. units (second, meters, Newtons, ...)
If the header above contains a line with 'inDegrees', this indicates whether rotational values are in degrees (yes) or radians (no).

endheader
time	pelvis_tilt	pelvis_list	pelvis_rotation	pelvis_tx	pelvis_ty	pelvis_tz	hip_flexion_r	hip_adduction_r	hip_rotation_r	knee_angle_r	ankle_angle_r	subtalar_angle_r	mtp_angle_r	hip_flexion_l	hip_adduction_l	hip_rotation_l	knee_angle_l	ankle_angle_l	subtalar_angle_l	mtp_angle_l	lumbar_extension	lumbar_bending	lumbar_rotation	arm_flex_r	arm_add_r	arm_rot_r	elbow_flex_r	pro_sup_r	arm_flex_l	arm_add_l	arm_rot_l	elbow_flex_l	pro_sup_l
      8.16666670	      8.73530843	      5.20154296	    -45.42511630	      0.62775460	      1.15430094	      0.48064816	    -14.68948434	     -6.16431974	    -32.32714458	      7.74391270	      9.63336057	     -8.39238769	      0.00000000	     -1.96819786	     -4.99118943	     -4.71791892	     15.16718458	      4.74489343	      3.72266221	      0.00000000	     -7.86464045	    -13.55676932	     12.21018023	     76.07349368	    -25.84233474	     26.62618726	     34.33566693	    110.18774313	     36.24596059	    -10.38330275	     34.80565271	     97.79031102	    111.47714159
      8.18333330	      8.96213778	      5.22337402	    -43.10109385	      0.63241960	      1.15631604	      0.47146906	    -15.01549189	     -5.96441078	    -32.49389876	      7.91897338	      9.67067487	     -8.38074914	      0.00000000	     -1.98044416	     -4.86937095	     -4.19349514	     15.40362910	      5.73986400	      3.87206318	      0.00000000	     -9.38632706	    -12.68613700	     15.48217599	     64.78997557	    -20.39146359	     26.55609395	     34.82316142	    110.55261442	     35.75382984	     -9.04565972	     34.49392742	     98.71782719	    111.11350642
      8.20000000	      9.13990231	      5.00758408	    -40.80456143	      0.63755177	      1.15942557	      0.46153677	    -15.60633045	     -5.52312895	    -32.53286271	      7.68489963	      9.68828078	     -8.03766874	      0.00000000	     -2.46352283	     -4.79586950	     -4.13236608	     14.84352537	      6.34480245	      3.80128841	      0.00000000	    -10.79237177	    -11.89132300	     17.31052643	     55.31153962	    -14.58453737	     26.60555381	     31.18827596	    110.58845395	     35.75315790	     -7.89899769	     32.94029162	     99.59619968	    110.81676071
      8.21666670	      9.33658877	      4.94672920	    -38.46532452	      0.64286129	      1.16259177	      0.45256458	    -16.11799211	     -5.17726837	    -32.85667043	      7.47521394	      9.78553651	     -7.79092099	      0.00000000	     -2.88353635	     -4.63927469	     -3.72770062	     14.26719052	      6.87648499	      3.77797378	      0.00000000	    -11.56065036	    -11.53060220	     18.75162504	     50.58921980	     -9.81029175	     27.77088593	     28.02690332	    110.89385872	     36.43765433	     -6.63328321	     33.18522257	     99.87611800	    110.66002874
      8.23333330	      9.14349177	      5.23053186	    -35.90905353	      0.64512180	      1.16587534	      0.44384159	    -15.69339442	     -4.90596494	    -33.58126025	      7.76580777	      9.96225807	     -7.74521597	      0.00000000	     -2.48899237	     -4.60086467	     -3.00782183	     14.08049670	      7.02738887	      3.59852117	      0.00000000	    -12.40762591	    -11.58508189	     19.45037274	     46.33667701	     -5.90328604	     35.25362006	     27.65952890	    112.78757725	     36.94206046	     -6.13497752	     33.20127003	    101.36236977	    110.54980430
      8.25000000	      8.62958084	      5.59918863	    -33.39743683	      0.64671352	      1.16824177	      0.43340638	    -14.92026090	     -4.61490635	    -33.97141710	      8.13187476	     10.03982151	     -8.02494015	      0.00000000	     -1.64530541	     -4.51980719	     -2.23173522	     14.02926991	      7.12873065	      3.08066923	      0.00000000	    -13.27185150	    -11.10989611	     20.34797537	     43.81756758	     -3.35255144	     39.67242731	     23.94792090	    114.01437682	     37.99319211	     -5.60972512	     34.33260839	    102.31323790	    110.77949129
      8.26666670	      7.92490988	      6.21784687	    -30.64857419	      0.64718989	      1.17052401	      0.42350740	    -13.78789551	     -4.46518788	    -34.31367934	      8.71743327	      9.97355820	     -8.85670287	      0.00000000	     -0.48704181	     -4.24461277	     -1.22057355	     13.85499418	      7.04436088	      2.80804697	      0.00000000	    -14.03702169	    -11.40869232	     21.26392108	     40.76593795	     -1.75366111	     43.27696284	     21.74858436	    115.03491172	     38.49803125	     -5.38497770	     35.93910847	    103.60297025	    111.32972140
      8.28333330	      7.36161611	      6.59427340	    -28.06244235	      0.64760941	      1.17236886	      0.41440792	    -13.06587440	     -4.23745787	    -34.82507452	      9.04182026	      9.86888038	     -9.43031410	      0.00000000	      0.20903504	     -4.05747162	     -0.25906648	     13.43969280	      6.96595791	      2.52456705	      0.00000000	    -14.59061351	    -11.35936368	     21.77969384	     38.59462715	     -0.37012342	     46.02866635	     20.68977875	    115.83075410	     38.43319762	     -5.46133950	     37.32947239	    104.53352490	    112.00192692
      8.30000000	      6.96843003	      6.76923950	    -26.14255575	      0.64865004	      1.17383975	      0.40718779	    -12.71235127	     -4.03295866	    -34.96734409	      9.17431427	      9.78174190	     -9.49712768	      0.00000000	      0.27671742	     -3.94253494	      0.15456752	     12.71526912	      7.01698088	      2.68999384	      0.00000000	    -14.70770121	    -11.72524163	     22.76112607	     37.07133705	      0.54348465	     46.76869438	     19.95726136	    116.02525699	     38.00338217	     -5.85971528	     37.91263474	    105.15647252	    112.19946636
      8.31666670	      6.37605682	      7.04204928	    -23.45974827	      0.64972415	      1.17430812	      0.39890003	    -12.03868218	     -3.95381070	    -36.01636851	      9.81754224	      9.86432956	     -9.66947352	      0.00000000	      1.18140983	     -3.70603884	      1.84713720	     12.70292585	      6.83864563	      1.97599875	      0.00000000	    -14.76874551	    -11.36831393	     23.13689774	     36.89755668	      1.21786692	     48.90280926	     18.45339839	    116.71712320	     37.67351473	     -6.40717090	     37.81335671	    106.22852344	    113.02545071
      8.33333330	      6.12271196	      7.27462708	    -21.71999709	      0.65078901	      1.17460036	      0.39277069	    -11.84604391	     -3.97770724	    -36.18541307	     10.04716847	      9.87402756	     -9.82056755	      0.00000000	      1.17230032	     -3.49659180	      2.31031023	     12.04750741	      6.78667800	      2.27574853	      0.00000000	    -14.76035652	    -11.39553996	     24.40497395	     36.34604133	      1.12359047	     49.13314376	     17.64696217	    116.78729641	     37.35949595	     -6.74066665	     38.19306537	    107.48412713	    113.19548618
      8.35000000	      5.63581866	      7.68358360	    -19.26639921	      0.65155285	      1.17450232	      0.38499075	    -11.21425650	     -4.21615636	    -36.96050515	     10.86716853	      9.97728315	    -10.06513266	      0.00000000	      1.97579118	     -3.08770517	      3.93334567	     11.98786382	      6.48419939	      1.64269359	      0.00000000	    -14.52463230	    -11.10087099	     23.64004502	     36.30665215	      0.75361652	     50.27267578	     16.39975926	    117.23884647	     37.07340167	     -7.16236886	     38.39268236	    108.73820903	    114.06250172
      8.36666670	      5.56014609	      7.78099964	    -18.22731445	      0.65206040	      1.17523632	      0.37789442	    -11.10276344	     -4.43549989	    -36.66098218	     11.19532394	     10.02582171	     -9.96791477	      0.00000000	      1.79020934	     -2.93495626	      4.17775269	     11.50517438	      6.41055105	      1.83393896	      0.00000000	    -14.45529331	    -10.77294518	     23.31582221	     35.52969834	     -0.13948722	     50.29850380	     15.94419658	    117.25665120	     36.32116955	     -7.78224728	     38.70686290	    109.90086008	    114.21163281
